<?xml version="1.0" encoding="utf-8" ?>
<svg xmlns="http://www.w3.org/2000/svg" xmlns:xlink="http://www.w3.org/1999/xlink" width="1024" height="1024">
	<path fill="#15212D" d="M59.3663 612.139C64.6274 613.092 67.4807 614.61 71.1719 618.371C72.4272 622.398 73.1216 626.472 71.3572 630.492C69.4726 634.786 65.5955 636.802 61.5071 638.492C60.5115 638.512 59.4753 638.541 58.4882 638.394C53.9001 637.711 50.3542 634.594 47.6423 631.073C47.2853 627.052 47.4336 623.284 47.7836 619.271C51.2977 615.317 54.1514 613.368 59.3663 612.139Z"/>
	<path fill="#DFF8FB" d="M892.866 826.62C897.79 826.469 902.866 827.553 906.986 830.368C911.047 833.142 913.719 837.331 914.441 842.199C915.191 847.258 914.59 852.969 911.393 857.131C907.728 861.902 902.213 863.7 896.504 864.441C892.144 864.414 888.314 863.757 884.514 861.493C880.038 858.826 876.481 854.257 875.283 849.153Q875.175 848.689 875.09 848.219Q875.006 847.75 874.946 847.277Q874.886 846.804 874.85 846.329Q874.815 845.853 874.804 845.377Q874.793 844.9 874.807 844.424Q874.82 843.947 874.858 843.472Q874.897 842.997 874.959 842.524Q875.022 842.051 875.109 841.583Q875.196 841.114 875.307 840.65Q875.418 840.187 875.553 839.729Q875.688 839.272 875.846 838.822Q876.004 838.373 876.185 837.932Q876.366 837.491 876.57 837.06Q876.774 836.629 877 836.209Q877.225 835.789 877.472 835.381Q877.719 834.973 877.987 834.579C881.734 829.067 886.712 827.769 892.866 826.62Z"/>
	<path fill="#FEFEFB" d="M890.728 830.082C896.379 829.526 902.949 830.876 907.355 834.692C910.03 837.009 911.363 840.428 911.608 843.904C912.39 855.003 906.165 854.965 900.534 861.848C900.386 862.029 900.243 862.214 900.098 862.396Q894.54 862.474 888.984 862.336C884.314 858.862 880.487 855.792 879.087 849.831C878.018 845.28 878.149 840.006 880.838 836.015C883.381 832.241 886.466 830.986 890.728 830.082Z"/>
	<path fill="#DFF8FB" d="M942.303 780.589C947.925 780.307 952.609 781.417 957.033 785.108C961.056 788.463 963.089 792.705 963.574 797.881C964.12 803.699 963.168 809.536 959.154 814.014C955.927 817.614 951.805 819.167 947.052 819.459C942.577 819.472 939.123 819.582 934.975 817.48C930.261 815.092 926.843 810.563 925.4 805.527C923.861 800.155 924.47 794.482 927.37 789.68C930.967 783.724 935.908 782.043 942.303 780.589Z"/>
	<path fill="#FEFEFB" d="M943.104 783.556C947.228 783.233 951.046 784.677 954.844 786.089C957.063 788.883 959.377 792.131 960.539 795.517C961.846 799.325 961.576 803.083 959.692 806.649C956.24 813.18 950.838 815.31 944.185 817.235C936.274 816.094 931.487 812.613 928.6 805.065C927.625 802.518 927.666 801.368 925.705 799.122C925.545 798.939 925.381 798.76 925.22 798.58C926.937 794.74 929.637 791.086 931.879 787.519C935.6 785.983 939.209 784.588 943.104 783.556Z"/>
	<path fill="#DFF8FB" d="M955.943 484.664C955.405 477.926 954.456 469.652 959.093 464.075C962.703 459.733 968.764 457.042 974.328 456.588C979.732 456.147 984.595 458.018 988.617 461.596C992.847 465.359 994.92 469.65 995.939 475.15L996.93 473.294L997.409 473.276C997.69 475.563 997.748 477.739 997.439 480.025L996.732 480.542C996.568 480.351 996.45 480.108 996.239 479.97C995.96 479.787 995.616 479.728 995.305 479.608L995.902 479.426L995.43 480.098C995.445 480.346 995.47 480.592 995.476 480.84C995.548 483.881 993.166 487.742 991.043 489.793C986.524 494.162 980.093 495.659 973.985 495.399C972.537 495.337 971.108 495.252 969.674 495.035C964.964 494.11 959.246 487.925 955.943 484.664Z"/>
	<path fill="#FEFEFB" d="M974.138 458.42C976.067 458.808 977.898 459.395 979.72 460.127C984.661 462.112 989.242 465.391 991.28 470.481C993.601 476.281 991.941 481.743 989.567 487.163C985.769 489.512 981.128 491.429 977.014 493.173C975.001 492.86 972.999 492.629 970.972 492.45C967.298 492.125 962.775 490.149 960.487 487.158C956.567 482.033 958.273 473.533 959.048 467.605C964.101 464.464 968.827 461.165 974.138 458.42Z"/>
	<path fill="#24384F" d="M896.783 775.037C901.798 775.399 908.669 780.728 911.987 784.415C915.919 788.784 917.54 794.411 917.003 800.219C916.423 806.485 913.467 812.795 908.576 816.83C904.123 820.504 898.369 822.592 892.579 821.967Q891.991 821.9 891.407 821.804Q890.824 821.707 890.246 821.582Q889.667 821.457 889.096 821.304Q888.525 821.15 887.962 820.968Q887.399 820.786 886.846 820.577Q886.292 820.367 885.75 820.131Q885.208 819.894 884.678 819.63Q884.149 819.367 883.633 819.078Q883.117 818.788 882.616 818.474Q882.115 818.159 881.63 817.82Q881.145 817.481 880.678 817.118Q880.211 816.755 879.762 816.37Q879.313 815.984 878.884 815.577Q878.455 815.17 878.047 814.741Q877.639 814.313 877.252 813.865Q876.866 813.417 876.502 812.951C872.908 808.263 871.009 800.831 872.039 795.063C872.883 790.333 875.561 784.379 879.771 781.711C879.96 781.592 880.156 781.484 880.348 781.371C882.879 780.896 885.721 779.053 888.159 778.038C890.965 776.87 894.104 776.331 896.783 775.037Z"/>
	<path fill="#44A0E2" d="M955.943 484.664C959.246 487.925 964.964 494.11 969.674 495.035C969.652 495.245 969.628 495.454 969.607 495.664C969.085 501.121 971.05 506.394 971.585 511.812C972.746 523.55 973.439 535.682 972.807 547.47Q972.543 552.334 972.152 557.19Q971.76 562.046 971.241 566.89Q970.722 571.733 970.076 576.562Q969.43 581.39 968.657 586.2Q967.884 591.01 966.985 595.797Q966.086 600.585 965.061 605.348Q964.036 610.11 962.886 614.844Q961.737 619.578 960.463 624.28Q959.189 628.982 957.792 633.649Q956.395 638.316 954.876 642.944Q953.357 647.573 951.717 652.16Q950.076 656.747 948.316 661.289Q946.556 665.831 944.676 670.326Q942.797 674.82 940.8 679.264Q938.804 683.707 936.691 688.096Q934.578 692.486 932.35 696.818C927.696 705.745 922.686 714.856 917.464 723.45C914.304 728.651 910.665 733.645 907.808 739.017C911.767 742.3 913.845 747.048 914.406 752.102C914.91 756.64 914.383 761.935 911.452 765.627C907.683 770.374 903.17 771.318 897.871 773.313L896.783 775.037C894.104 776.331 890.965 776.87 888.159 778.038C885.721 779.053 882.879 780.896 880.348 781.371L880.611 779.812C879.881 780.302 879.981 780.39 879.105 780.349C876.492 780.228 871.955 782.382 870.158 784.264C868.147 786.371 866.486 789.603 866.308 792.518C866.719 802.881 865.632 806.331 861.2 815.453C854.269 818.698 846.847 821.964 839.093 819.004C835.723 817.717 830.899 811.48 829.178 811.167C827.623 811.269 825.95 811.324 824.531 812.029C817.664 815.445 804.289 828.512 796.703 833.898Q786.875 840.984 776.736 847.618Q766.596 854.253 756.168 860.421Q745.739 866.589 735.041 872.28Q724.344 877.97 713.4 883.17C698.585 890.26 682.351 895.34 666.711 900.323Q663.201 901.47 659.67 902.553Q656.14 903.637 652.59 904.655Q649.041 905.674 645.473 906.628Q641.906 907.583 638.322 908.472Q634.737 909.361 631.138 910.185Q627.538 911.009 623.924 911.767Q620.309 912.525 616.682 913.218Q613.055 913.91 609.415 914.537Q605.776 915.163 602.126 915.724Q598.476 916.284 594.816 916.778Q591.156 917.272 587.488 917.699Q583.82 918.126 580.145 918.487Q576.47 918.847 572.789 919.141Q569.107 919.435 565.422 919.661Q561.736 919.888 558.046 920.048Q554.357 920.208 550.665 920.3Q546.973 920.393 543.281 920.419Q539.588 920.444 535.895 920.402Q532.202 920.361 528.511 920.252Q524.82 920.144 521.131 919.968Q517.443 919.792 513.758 919.55Q510.073 919.307 506.393 918.997Q502.713 918.688 499.039 918.311Q495.366 917.935 491.7 917.492Q488.033 917.048 484.376 916.539Q480.718 916.029 477.071 915.453Q473.423 914.877 469.786 914.235Q466.15 913.592 462.525 912.884Q458.901 912.176 455.29 911.402Q451.679 910.628 448.083 909.788Q444.487 908.949 440.907 908.044Q437.326 907.14 433.763 906.17C422.998 903.195 412.562 899.247 402.03 895.56C385.998 889.946 370.969 883.149 355.749 875.643C351.398 873.496 345.609 871.229 341.846 868.147C341.534 867.891 341.199 867.523 340.928 867.243C345.594 865.849 352.169 866.77 357.056 866.79L388.143 866.88C395.806 866.896 403.858 867.379 411.421 866.016C417.247 864.967 422.847 862.737 428.097 860.047C436.053 862.927 445.103 864.917 453.382 866.805Q457.648 867.786 461.935 868.671Q466.223 869.556 470.529 870.344Q474.835 871.132 479.157 871.823Q483.48 872.513 487.817 873.107Q492.154 873.7 496.504 874.195Q500.853 874.69 505.213 875.087Q509.572 875.485 513.939 875.783Q518.307 876.082 522.68 876.283Q527.052 876.483 531.429 876.585Q535.805 876.686 540.183 876.69Q544.56 876.693 548.937 876.597Q553.313 876.502 557.687 876.307Q562.06 876.113 566.427 875.821Q570.795 875.528 575.155 875.137Q579.515 874.746 583.865 874.257Q588.216 873.768 592.553 873.181Q596.891 872.594 601.215 871.909Q605.539 871.225 609.846 870.443Q614.153 869.661 618.442 868.782Q622.73 867.903 626.997 866.928Q631.265 865.953 635.509 864.882Q639.754 863.811 643.973 862.645Q648.192 861.478 652.384 860.217Q656.576 858.956 660.739 857.6Q664.901 856.245 669.032 854.796Q673.163 853.347 677.26 851.806Q681.357 850.264 685.418 848.631Q689.48 846.997 693.503 845.273Q697.527 843.548 701.51 841.734Q705.494 839.919 709.436 838.015Q713.377 836.111 717.275 834.118Q721.173 832.126 725.025 830.046C740.941 821.331 755.956 811.332 770.83 800.965C775.291 797.857 779.143 793.478 783.77 790.687C783.991 790.554 784.216 790.426 784.438 790.295C792.636 782.831 801.52 775.86 809.352 768.036C821.012 756.387 831.312 743.706 842.328 731.502C849.043 721.047 857.525 711.529 864.436 701.108Q868.498 694.932 872.324 688.608Q876.15 682.284 879.735 675.82Q883.32 669.356 886.658 662.761Q889.997 656.167 893.085 649.451Q896.173 642.735 899.005 635.908Q901.838 629.081 904.411 622.151Q906.983 615.222 909.293 608.201Q911.603 601.179 913.647 594.076Q918.776 576.139 922.254 557.81Q925.731 539.48 927.528 520.911C928.005 515.962 928.246 492.534 929.743 490.631C934.596 489.019 939.236 486.554 944.339 485.69C947.985 485.072 952.54 485.82 955.943 484.664Z"/>
	<path fill="#0DA5B2" d="M878.59 764.384C880.534 766.031 882.305 767.818 884.094 769.628C886.5 772.236 891.072 773.213 894.506 773.427C895.632 773.497 896.751 773.416 897.871 773.313L896.783 775.037C894.104 776.331 890.965 776.87 888.159 778.038C885.721 779.053 882.879 780.896 880.348 781.371L880.611 779.812C878.656 779.024 876.641 779.058 874.562 778.953C876.95 775.908 879.402 772.984 882.006 770.121C880.553 768.235 879.325 766.693 878.59 764.384Z"/>
	<path fill="#FEFEFB" d="M877.201 761.344C877.013 760.947 876.825 760.55 876.654 760.145C874.919 756.042 875.031 751.035 876.847 746.98C878.833 742.544 882.64 738.747 887.211 737.023C893.327 734.717 899.941 735.529 905.759 738.217L907.808 739.017C911.767 742.3 913.845 747.048 914.406 752.102C914.91 756.64 914.383 761.935 911.452 765.627C907.683 770.374 903.17 771.318 897.871 773.313C896.751 773.416 895.632 773.497 894.506 773.427C891.072 773.213 886.5 772.236 884.094 769.628C882.305 767.818 880.534 766.031 878.59 764.384L877.201 761.344Z"/>
	<path fill="#DFF8FB" d="M877.201 761.344C880.503 763.12 882.944 764.527 885.087 767.746C890.861 770.152 893.958 769.309 899.611 770.345C895.521 771.585 888.145 770.793 884.094 769.628C882.305 767.818 880.534 766.031 878.59 764.384L877.201 761.344Z"/>
	<path fill="#DFF8FB" d="M905.759 738.217L907.808 739.017C911.767 742.3 913.845 747.048 914.406 752.102C914.91 756.64 914.383 761.935 911.452 765.627C907.683 770.374 903.17 771.318 897.871 773.313C896.751 773.416 895.632 773.497 894.506 773.427C891.072 773.213 886.5 772.236 884.094 769.628C888.145 770.793 895.521 771.585 899.611 770.345C900.161 770.035 900.153 770.052 900.772 769.629C905.493 766.402 911.323 761.14 912.115 755.211C912.879 749.49 909.023 746.629 906.196 742.395C905.126 740.791 905.464 740.006 905.759 738.217Z"/>
	<path fill="#FEFEFB" d="M839.797 782.261C846.011 780.338 851.445 780.037 857.424 783.194C860.684 784.915 865.2 788.931 866.308 792.518C866.719 802.881 865.632 806.331 861.2 815.453C854.269 818.698 846.847 821.964 839.093 819.004C835.723 817.717 830.899 811.48 829.178 811.167C828.547 809.288 828.284 807.22 827.912 805.272C827.909 800.544 827.398 796.021 829.234 791.494C831.212 786.617 835.255 784.312 839.797 782.261Z"/>
	<path fill="#DFF8FB" d="M839.797 782.261C846.011 780.338 851.445 780.037 857.424 783.194C860.684 784.915 865.2 788.931 866.308 792.518C866.719 802.881 865.632 806.331 861.2 815.453C854.269 818.698 846.847 821.964 839.093 819.004C835.723 817.717 830.899 811.48 829.178 811.167C828.547 809.288 828.284 807.22 827.912 805.272C829.168 807.015 829.994 807.245 831.572 808.428C835.885 811.663 838.135 815.522 843.999 816.574C848.637 817.405 853.809 815.979 857.572 813.197Q858.241 812.699 858.856 812.135Q859.471 811.572 860.026 810.949Q860.581 810.327 861.07 809.651Q861.56 808.976 861.978 808.255Q862.397 807.533 862.74 806.773Q863.084 806.013 863.349 805.222Q863.614 804.431 863.798 803.618Q863.981 802.804 864.082 801.976C864.594 798.005 863.421 794.198 860.915 791.098C855.763 784.725 847.482 783.173 839.797 782.261Z"/>
	<path fill="#24384F" d="M253.391 232.59C266.311 217.791 281.593 204.421 297.033 192.272Q300.023 189.925 303.057 187.635Q306.09 185.345 309.166 183.111Q312.242 180.878 315.359 178.702Q318.476 176.527 321.633 174.41Q324.79 172.293 327.986 170.235Q331.181 168.177 334.415 166.18Q337.649 164.182 340.919 162.245Q344.19 160.308 347.496 158.432Q350.802 156.556 354.142 154.742Q357.483 152.929 360.856 151.178Q364.23 149.427 367.636 147.739Q371.042 146.051 374.478 144.427Q377.915 142.803 381.382 141.243Q384.848 139.684 388.343 138.189Q391.838 136.694 395.36 135.265Q398.882 133.836 402.43 132.473Q405.978 131.11 409.551 129.813Q413.125 128.516 416.721 127.286Q420.318 126.056 423.937 124.894Q427.556 123.731 431.196 122.637Q434.836 121.542 438.495 120.515Q442.155 119.488 445.833 118.53Q449.512 117.572 453.207 116.682Q456.903 115.793 460.614 114.973Q464.326 114.152 468.052 113.401Q471.778 112.65 475.518 111.969Q479.257 111.288 483.009 110.676Q486.76 110.065 490.523 109.524Q494.285 108.982 498.057 108.511Q501.828 108.04 505.608 107.64Q509.388 107.239 513.175 106.909Q516.962 106.579 520.754 106.32C526.74 105.884 532.846 106.05 538.849 106.036C557.441 105.994 572.893 106.982 591.361 109.586C673 121.1 742.371 155.389 804.073 209.308C815.759 219.52 826.635 231.082 836.806 242.79Q839.312 245.662 841.758 248.585Q844.204 251.508 846.591 254.48Q848.977 257.452 851.303 260.472Q853.628 263.492 855.891 266.559Q858.154 269.626 860.355 272.738Q862.555 275.85 864.692 279.007Q866.828 282.163 868.9 285.363Q870.971 288.562 872.977 291.803Q874.983 295.044 876.923 298.325Q878.862 301.607 880.735 304.927Q882.607 308.247 884.411 311.604Q886.215 314.962 887.951 318.355Q889.686 321.749 891.352 325.177Q893.018 328.605 894.614 332.067Q896.209 335.528 897.734 339.021Q899.259 342.515 900.712 346.038Q902.166 349.562 903.547 353.114Q904.928 356.667 906.237 360.247Q907.545 363.827 908.78 367.433Q910.016 371.038 911.177 374.669Q912.339 378.299 913.426 381.952Q914.513 385.605 915.526 389.28Q916.538 392.954 917.476 396.649Q918.413 400.343 919.275 404.056Q920.137 407.769 920.924 411.499Q921.71 415.228 922.42 418.973Q923.13 422.718 923.763 426.476Q924.397 430.235 924.954 434.006Q925.51 437.776 925.99 441.557Q926.47 445.339 926.873 449.129Q927.275 452.919 927.601 456.717Q927.926 460.514 928.174 464.318C928.757 473.084 928.974 481.882 929.743 490.631C928.246 492.534 928.005 515.962 927.528 520.911Q925.731 539.48 922.254 557.81Q918.776 576.139 913.647 594.076Q911.603 601.179 909.293 608.201Q906.984 615.222 904.411 622.151Q901.838 629.081 899.005 635.908Q896.173 642.735 893.085 649.451Q889.997 656.167 886.659 662.761Q883.32 669.356 879.735 675.82Q876.15 682.284 872.324 688.608Q868.498 694.932 864.436 701.108C857.525 711.529 849.043 721.047 842.328 731.502C831.312 743.706 821.012 756.387 809.352 768.036C801.52 775.86 792.636 782.831 784.438 790.295C784.216 790.426 783.991 790.554 783.77 790.687C779.143 793.478 775.291 797.857 770.83 800.965C755.956 811.332 740.941 821.331 725.025 830.046Q721.173 832.126 717.275 834.118Q713.377 836.111 709.436 838.015Q705.494 839.919 701.51 841.734Q697.527 843.548 693.503 845.273Q689.48 846.997 685.418 848.631Q681.357 850.264 677.26 851.806Q673.163 853.347 669.032 854.796Q664.901 856.245 660.739 857.6Q656.576 858.956 652.384 860.217Q648.192 861.478 643.973 862.645Q639.754 863.811 635.509 864.882Q631.265 865.953 626.997 866.928Q622.73 867.903 618.441 868.782Q614.153 869.661 609.846 870.443Q605.539 871.225 601.215 871.909Q596.891 872.594 592.553 873.181Q588.216 873.768 583.865 874.257Q579.515 874.746 575.155 875.137Q570.795 875.528 566.427 875.821Q562.06 876.113 557.687 876.307Q553.313 876.502 548.937 876.597Q544.56 876.693 540.183 876.69Q535.805 876.686 531.429 876.585Q527.052 876.483 522.68 876.283Q518.307 876.082 513.939 875.783Q509.572 875.485 505.213 875.088Q500.853 874.69 496.504 874.195Q492.154 873.7 487.817 873.107Q483.48 872.513 479.157 871.823Q474.835 871.132 470.529 870.344Q466.222 869.556 461.935 868.671Q457.648 867.786 453.382 866.805C445.103 864.917 436.053 862.927 428.097 860.047C429.183 859.234 430.31 858.535 431.441 857.788C438.5 853.124 445.359 845.382 447.865 837.165C448.607 834.732 448.549 832.389 449.104 830.019C449.136 829.88 449.184 829.744 449.225 829.607C452.266 812.737 443.053 797.114 437.382 781.81C439.115 783.086 440.703 783.984 442.745 784.651C452.233 787.746 462 789.956 471.754 792.016Q477.113 793.138 482.505 794.084Q487.898 795.031 493.318 795.801Q498.739 796.572 504.182 797.165Q509.624 797.759 515.083 798.175Q520.543 798.592 526.012 798.83Q531.482 799.068 536.957 799.129Q542.431 799.189 547.905 799.071Q553.379 798.953 558.846 798.657Q564.313 798.361 569.767 797.887Q575.222 797.413 580.658 796.762Q586.094 796.111 591.506 795.284Q596.918 794.456 602.3 793.453Q607.682 792.45 613.029 791.272Q618.376 790.094 623.681 788.742Q628.987 787.391 634.246 785.868Q639.505 784.345 644.711 782.651C665.396 775.942 685.104 766.996 704.431 757.09C711.784 753.32 718.769 748.67 725.747 744.249C775.045 713.013 813.168 673.128 843.489 623.441C855.174 604.293 865.735 583.766 872.829 562.438Q877.288 549.2 880.839 535.69Q884.389 522.181 887.014 508.461C888.748 499.596 889.376 488.128 892.136 479.772C892.692 478.087 892.894 476.519 893.05 474.757C893.178 466.04 892.297 457.245 891.419 448.581Q890.797 442.968 889.987 437.379Q889.176 431.79 888.177 426.232Q887.179 420.673 885.993 415.152Q884.808 409.63 883.436 404.152Q882.065 398.674 880.51 393.245Q878.955 387.816 877.218 382.442Q875.48 377.069 873.563 371.757Q871.645 366.445 869.55 361.201Q867.454 355.956 865.183 350.786Q862.912 345.616 860.467 340.525Q858.023 335.434 855.408 330.428Q852.794 325.422 850.012 320.508Q847.23 315.593 844.283 310.775Q841.337 305.957 838.23 301.241Q835.123 296.525 831.859 291.917Q828.595 287.309 825.177 282.813Q822.523 279.311 819.784 275.875Q817.045 272.439 814.222 269.072Q811.4 265.704 808.496 262.406Q805.591 259.109 802.607 255.884Q799.623 252.659 796.561 249.508Q793.498 246.356 790.359 243.281Q787.221 240.206 784.008 237.209Q780.794 234.212 777.509 231.294Q774.223 228.377 770.867 225.541Q767.51 222.705 764.086 219.952Q760.661 217.199 757.169 214.531Q753.678 211.863 750.122 209.281Q746.567 206.7 742.949 204.206Q739.331 201.712 735.653 199.308Q731.975 196.904 728.239 194.59Q724.504 192.277 720.712 190.056Q716.921 187.835 713.076 185.707Q709.231 183.58 705.336 181.548Q701.44 179.515 697.496 177.579Q693.551 175.642 689.561 173.803Q685.57 171.964 681.535 170.223Q677.501 168.483 673.425 166.842Q669.349 165.2 665.234 163.66Q661.118 162.119 656.967 160.679Q652.815 159.24 648.63 157.903Q644.444 156.566 640.227 155.332Q636.01 154.097 631.763 152.967Q627.517 151.837 623.245 150.811Q618.972 149.785 614.675 148.864Q610.379 147.943 606.061 147.128Q601.744 146.313 597.407 145.604Q593.071 144.895 588.718 144.292Q584.936 143.801 581.144 143.389Q577.352 142.978 573.553 142.646Q569.753 142.314 565.947 142.062Q562.142 141.81 558.331 141.638Q554.521 141.466 550.708 141.374Q546.895 141.282 543.081 141.271Q539.267 141.259 535.454 141.327Q531.64 141.395 527.829 141.544Q524.018 141.692 520.211 141.92Q516.404 142.149 512.602 142.457Q508.8 142.765 505.006 143.153Q501.212 143.541 497.427 144.009Q493.641 144.476 489.867 145.023Q486.092 145.57 482.33 146.196Q478.568 146.823 474.819 147.528Q471.071 148.233 467.338 149.016Q463.605 149.8 459.89 150.662Q456.175 151.523 452.478 152.463Q448.782 153.403 445.106 154.42Q441.43 155.437 437.776 156.531Q434.122 157.625 430.492 158.795Q426.862 159.966 423.258 161.212Q419.653 162.459 416.075 163.781Q412.498 165.103 408.949 166.5Q405.4 167.896 401.881 169.367Q398.362 170.838 394.874 172.383Q391.387 173.927 387.933 175.545Q384.479 177.162 381.059 178.852Q377.64 180.542 374.257 182.303Q370.874 184.064 367.528 185.895Q364.183 187.727 360.877 189.629Q357.571 191.53 354.305 193.501C340.868 201.748 327.796 211.095 315.494 220.954C309.741 225.564 304.411 230.683 298.545 235.147C291.935 231.636 261.524 230.823 253.391 232.59Z"/>
	<path fill="#C3D4ED" d="M893.05 474.757C894.725 485.178 893.975 501.852 893.339 512.69Q893.136 515.769 892.878 518.844Q892.621 521.918 892.309 524.988Q891.998 528.058 891.633 531.122Q891.267 534.185 890.848 537.242Q890.429 540.299 889.956 543.348Q889.484 546.397 888.957 549.438Q888.431 552.478 887.851 555.508Q887.271 558.539 886.638 561.559Q886.006 564.579 885.32 567.587Q884.634 570.595 883.895 573.591Q883.157 576.587 882.365 579.569Q881.574 582.551 880.731 585.519Q879.887 588.487 878.992 591.44Q878.096 594.393 877.149 597.329Q876.202 600.266 875.203 603.185Q874.204 606.104 873.154 609.006Q872.104 611.907 871.004 614.79Q869.903 617.672 868.751 620.535Q867.6 623.397 866.399 626.239Q865.197 629.081 863.946 631.902Q862.695 634.722 861.395 637.52Q860.094 640.318 858.744 643.093Q857.395 645.868 855.997 648.618Q854.599 651.369 853.152 654.094Q851.706 656.82 850.212 659.52Q848.718 662.219 847.177 664.892Q845.636 667.565 844.048 670.211Q842.46 672.856 840.826 675.474Q839.192 678.091 837.512 680.679Q835.832 683.267 834.107 685.825Q832.382 688.383 830.612 690.911Q828.842 693.438 827.028 695.934Q824.451 699.517 821.786 703.035Q819.12 706.552 816.368 710.003Q813.616 713.453 810.779 716.833Q807.941 720.213 805.021 723.522Q802.1 726.831 799.097 730.065Q796.095 733.3 793.013 736.459Q789.931 739.618 786.771 742.699Q783.611 745.78 780.375 748.782Q777.14 751.783 773.83 754.703Q770.521 757.622 767.139 760.459Q763.758 763.295 760.307 766.046Q756.856 768.797 753.337 771.462Q749.819 774.126 746.235 776.702Q742.651 779.277 739.004 781.763Q735.357 784.248 731.65 786.642Q727.942 789.036 724.175 791.337Q720.409 793.637 716.587 795.843Q712.764 798.049 708.888 800.159Q705.011 802.269 701.084 804.282Q697.156 806.295 693.179 808.209Q689.203 810.123 685.179 811.937Q681.156 813.752 677.089 815.465Q673.022 817.179 668.913 818.79Q664.805 820.402 660.657 821.911Q656.51 823.419 652.326 824.824Q648.142 826.229 643.924 827.529Q639.707 828.829 635.458 830.024Q631.209 831.218 626.932 832.306Q622.655 833.394 618.352 834.376Q614.049 835.357 609.723 836.23Q605.397 837.104 601.051 837.87Q596.704 838.635 592.34 839.292C550.883 845.872 503.928 844.721 463.171 834.337C460.386 833.628 452.057 832.324 450.247 831.076C449.558 830.602 449.552 830.33 449.225 829.607C452.266 812.737 443.053 797.114 437.382 781.81C439.115 783.086 440.703 783.984 442.745 784.651C452.233 787.746 462 789.956 471.754 792.016Q477.113 793.138 482.505 794.084Q487.898 795.031 493.318 795.801Q498.739 796.572 504.182 797.165Q509.624 797.759 515.083 798.175Q520.543 798.592 526.012 798.83Q531.482 799.068 536.957 799.129Q542.431 799.189 547.905 799.071Q553.379 798.953 558.846 798.657Q564.313 798.361 569.767 797.887Q575.222 797.413 580.658 796.762Q586.094 796.111 591.506 795.284Q596.918 794.456 602.3 793.453Q607.682 792.45 613.029 791.272Q618.376 790.094 623.681 788.742Q628.987 787.391 634.246 785.868Q639.505 784.345 644.711 782.651C665.396 775.942 685.104 766.996 704.431 757.09C711.784 753.32 718.769 748.67 725.747 744.249C775.045 713.013 813.168 673.128 843.489 623.441C855.174 604.293 865.735 583.766 872.829 562.438Q877.288 549.2 880.839 535.69Q884.389 522.181 887.014 508.461C888.748 499.596 889.376 488.128 892.136 479.772C892.692 478.087 892.894 476.519 893.05 474.757Z"/>
	<path fill="#15212D" d="M253.391 232.59C261.524 230.823 291.935 231.636 298.545 235.147C328.314 241.406 352.758 254.323 375.586 274.257C385.647 284.623 394.111 295.127 401.641 307.508C407.024 317.597 411.424 327.715 415.037 338.565L416.857 345.415C419.605 354.219 419.683 362.616 421.309 371.494C421.913 381.765 421.518 392.188 421.506 402.481C420.624 414.559 420.228 426.734 419.899 438.84C418.843 448.449 419.471 459.271 420.547 468.856C422.069 486.111 429.651 501.762 437.401 516.992C441.987 528.327 447.12 539.05 449.292 551.184C450.894 562.626 450.501 573.021 446.6 584.02C439.328 597.922 431.257 607.977 417.049 615.39L417.539 616.011C420.472 617.061 456.973 616.287 463.525 616.42C465.775 614.815 467.935 613.186 470.511 612.132C475.913 606.998 483.162 597.336 491.244 597.671C494.67 597.813 498.127 599.86 500.352 602.401C502.745 605.134 503.207 608.64 502.907 612.145C502.806 613.333 502.545 614.474 502.239 615.623C492.798 626.111 481.655 635.357 471.644 645.344L468.027 648.73C463.285 653.006 455.923 658.294 452.304 663.327C456.087 669.442 459.739 675.308 461.178 682.472L461.237 682.995C461.59 686.293 461.139 689.753 461.713 692.987C462.593 697.954 466.573 708.924 468.58 713.892C470.779 722.768 476.17 744.911 471.713 752.603C470.207 755.203 467.754 757.086 464.815 757.753C461.766 758.446 458.629 757.778 456.022 756.081C453.208 754.248 451.48 751.546 450.334 748.451L449.372 748.376C445.712 751.515 443.171 754.627 438.814 756.979C436.082 756.996 428.603 755.808 426.628 756.465C429.435 763.385 433.598 775.774 437.382 781.81C443.053 797.114 452.266 812.737 449.225 829.607C449.184 829.744 449.136 829.88 449.104 830.019C448.549 832.389 448.607 834.732 447.865 837.165C445.359 845.382 438.5 853.124 431.441 857.788C430.31 858.535 429.183 859.234 428.097 860.047C422.847 862.737 417.247 864.967 411.421 866.016C403.858 867.379 395.806 866.896 388.143 866.88L357.056 866.79C352.169 866.77 345.594 865.849 340.928 867.243C334.031 865.502 308.709 866.628 299.763 866.633L176.193 866.609C160.332 866.511 143.99 867.583 128.196 866.464C124.587 866.208 121.14 865.529 117.765 864.208C105.364 859.358 95.0457 851.528 89.668 839.108C81.2442 819.653 92.5291 798.41 100.291 780.673C103.85 772.539 107.132 764.406 110.341 756.132C107.844 756.901 104.043 756.913 101.438 756.704C96.2847 756.29 90.4056 752.016 87.2898 748.05C86.1524 750.919 84.7199 753.362 83.0705 755.961C79.3399 757.412 75.8948 758.732 71.8276 757.686C67.7994 756.649 65.5776 753.767 63.6044 750.349Q63.4105 744.852 63.8197 739.366Q64.2289 733.881 65.2361 728.473C66.817 719.999 69.4308 711.609 72.1231 703.434C74.2606 696.943 76.2131 690.196 78.8436 683.892C85.3718 668.246 97.6667 648.518 110.482 637.406C115.456 633.093 121.544 627.708 127.316 624.52C129.966 623.056 132.848 622.672 135.387 620.93L135.067 620.853C134.747 620.034 133.99 620.166 133.193 619.96C118.881 616.261 108.26 610.427 99.0808 598.544C91.3945 588.594 85.7813 573.489 86.4032 560.799C87.2055 544.424 95.6196 525.615 102.58 510.886C104.81 506.165 107.441 501.65 109.457 496.825C123.064 464.256 115.259 423.405 115.416 388.764C115.444 382.544 115.312 376.322 116.085 370.139C121.426 327.432 137.699 292.744 171.424 265.117Q178.645 259.312 186.553 254.483C189.359 252.805 192.52 251.632 195.063 249.552C201.613 244.193 226.883 237.325 236.09 235.39C241.778 234.194 247.642 233.477 253.391 232.59Z"/>
	<path fill="#EE6878" d="M365.431 740.147L365.978 740.354C368.846 741.471 372.069 745.111 374.881 745.381C375.811 745.47 377.447 744.913 378.468 744.836L373.521 748.826C370.925 745.851 368.139 743.021 365.431 740.147Z"/>
	<path fill="#EE6878" d="M363.868 738.59C362.768 737.719 361.965 736.94 361.09 735.845C360.917 735.177 360.83 734.657 361.015 733.975C361.646 731.652 363.008 730.457 364.969 729.214L366.178 729.615C367.013 730.684 367.783 731.637 368.914 732.411C369.192 732.601 369.474 732.784 369.754 732.97C368.304 733.244 366.134 733.383 365.145 734.598C364.488 735.405 364.432 735.596 364.553 736.595C364.689 737.719 364.686 737.267 364.528 738.334L363.868 738.59Z"/>
	<path fill="#EE6878" d="M120.338 737.982C126.278 736.098 132.115 729.823 138.294 730.958C127.465 734.96 120.133 740.3 113.752 749.982C113.894 747.509 114.692 745.782 115.745 743.604L116.394 743.15C118.27 741.864 119.194 739.899 120.338 737.982Z"/>
	<path fill="#EE6878" d="M436.003 681.717C437.301 683.843 437.75 686.345 437.216 688.795C436.985 689.856 436.629 690.899 436.284 691.927C433.001 695.104 429.756 698.71 426.119 701.463C426.514 694.9 433.263 691.685 435.244 685.464C435.985 684.258 435.9 683.101 436.003 681.717Z"/>
	<path fill="#FD7F8F" d="M369.754 732.97C371.353 736.033 379.475 741.474 378.594 744.586C378.568 744.676 378.51 744.753 378.468 744.836C377.447 744.913 375.811 745.47 374.881 745.381C372.069 745.111 368.846 741.471 365.978 740.354L365.431 740.147C364.842 739.746 364.356 739.109 363.868 738.59L364.528 738.334C364.686 737.267 364.689 737.719 364.553 736.595C364.432 735.596 364.488 735.405 365.145 734.598C366.134 733.383 368.304 733.244 369.754 732.97Z"/>
	<path fill="#5F809B" d="M330.201 745.402L337.65 744.326C339.781 747.42 342.013 750.375 344.368 753.302L339.483 758.171C335.805 761.057 332.773 765.553 330.26 769.46L327.255 773.455C327.14 771.59 327.332 769.699 327.435 767.834C329.121 762.959 330.379 750.704 330.201 745.402Z"/>
	<path fill="#FD7F8F" d="M394.431 724.689C399.633 721.102 403.103 715.675 407.256 711.035C409.683 708.324 412.66 706.083 415.291 703.57C421.094 698.03 428.032 688.865 435.244 685.464C433.263 691.685 426.514 694.9 426.119 701.463C416.674 710.357 406.985 719.181 398.33 728.865C396.842 727.677 395.097 726.558 394.431 724.689Z"/>
	<path fill="#24384F" d="M344.368 753.302C347.221 754.573 358.179 764.881 358.843 767.572C359.06 768.453 359.103 768.851 358.608 769.596C355.367 774.476 337.381 778.819 331.708 779.61C329.916 779.86 328.239 780.04 326.462 779.607C325.349 778.264 325.156 777.437 325.305 775.688C325.531 773.031 326.229 770.219 327.435 767.834C327.332 769.699 327.14 771.59 327.255 773.455L330.26 769.46C332.773 765.553 335.805 761.057 339.483 758.171L344.368 753.302Z"/>
	<path fill="#415EA1" d="M339.483 758.171C339.184 759.457 338.912 760.206 338.171 761.304C336.935 763.132 336.946 764.553 337.162 766.655C335.828 768.637 333.068 768.917 330.822 769.36C330.635 769.396 330.447 769.427 330.26 769.46C332.773 765.553 335.805 761.057 339.483 758.171Z"/>
	<path fill="#FEFEFB" d="M379.225 412.51C383.313 413.612 387.365 416.515 389.978 419.812C393.614 424.402 394.978 430.248 394.086 436.003C393.067 442.57 389.322 447.62 384.128 451.527C380.907 453.614 377.611 455.35 374.089 456.869C377.076 442.014 378.069 427.58 379.225 412.51Z"/>
	<path fill="#FEFEFB" d="M156.702 412.838L157.762 412.878C159.021 414.174 159.06 424.203 159.251 426.543C160.092 436.826 161.697 446.716 163.318 456.89C160.244 455.476 157.4 453.962 154.538 452.156C150.871 449.673 147.742 446.608 145.609 442.685C142.939 437.775 142.134 431.76 143.854 426.401C145.994 419.734 150.729 415.909 156.702 412.838Z"/>
	<path fill="#5F809B" d="M340.533 277.302C353.584 285.274 371.633 302.365 379.03 315.802C379.122 317.098 379.335 318.604 379.089 319.884C378.598 322.439 375.775 323.968 373.803 325.311L373.07 324.709C367.312 320.065 362.826 312.795 357.603 307.401C354.161 303.847 350.664 300.297 347.02 296.948C343.763 293.955 340.205 291.248 337.322 287.878C339.296 284.65 339.28 280.809 340.533 277.302Z"/>
	<path fill="#FD7F8F" d="M418.269 740.398C426.413 733.608 436.731 721.689 445.029 716.426C448.386 726.894 449.961 737.479 450.334 748.451L449.372 748.376C445.712 751.515 443.171 754.627 438.814 756.979C436.082 756.996 428.603 755.808 426.628 756.465C423.404 751.676 421.081 745.532 418.269 740.398Z"/>
	<path fill="#F25073" d="M463.525 616.42C465.775 614.815 467.935 613.186 470.511 612.132C467.442 615.763 463.488 618.719 460.066 622.033C452.277 629.577 444.493 638.465 435.557 644.655C424.823 633.519 416.425 628.238 403.079 620.783C407.87 619.209 412.384 617.271 417.049 615.39L417.539 616.011C420.472 617.061 456.973 616.287 463.525 616.42Z"/>
	<path fill="#FDA353" d="M425.054 669.851C428.624 673.817 432.97 677.339 436.003 681.717C435.9 683.101 435.985 684.258 435.244 685.464C428.032 688.865 421.094 698.03 415.291 703.57C412.66 706.083 409.683 708.324 407.256 711.035C403.103 715.675 399.633 721.102 394.431 724.689C391.177 719.921 386.031 716.545 382.727 711.659C392.053 700.385 404.85 691.827 413.689 680.193L413.464 678.677Q414.304 678.906 415.152 679.102C418.646 676.827 423.33 673.791 425.054 669.851Z"/>
	<path fill="#F6BBAD" d="M353.551 628.696C373.72 634.894 402.031 642.828 416.883 658.295C420.257 661.808 422.349 665.876 425.054 669.851C423.33 673.791 418.646 676.827 415.152 679.102Q414.304 678.906 413.464 678.677C408.225 675.017 404.709 670.431 401.634 664.917C401.067 663.494 399.453 662.44 398.308 661.473C383.699 649.141 364.569 646.303 348.056 637.716L353.551 628.696Z"/>
	<path fill="#DFF8FB" d="M377.885 783.21L378.258 782.591C380.183 779.357 380.902 775.63 382.767 772.482C385.376 768.08 395.33 759.516 399.591 756.231C407.968 767.318 417.034 790.548 422.378 804.119C420.367 805.467 414.754 805.078 412.07 805.465C407.735 806.09 403.256 806.974 399.125 808.46C396.771 809.306 392.116 812.039 389.794 811.906C389.081 811.866 388.902 811.45 388.439 810.982C388.503 810.321 388.553 809.66 388.612 808.998C388.967 805.019 388.421 800.572 387.633 796.652C387.602 796.502 387.569 796.353 387.537 796.204L386.853 793.593C385.067 788.896 382.486 785.389 377.885 783.21Z"/>
	<path fill="#BAEAF6" d="M237.459 554.649C259.694 562.37 277.955 561.601 300.142 554.481C300.028 561.421 300.254 568.343 300.469 575.279L301.039 578.975C296.532 580.949 291.885 582.965 286.89 583.057C276.725 586.075 262.312 586.346 252.065 583.561C247.009 582.187 242.231 579.944 237.148 578.668L236.603 578.536C237.521 570.555 237.519 562.667 237.459 554.649Z"/>
	<path fill="#DFF8FB" d="M286.89 583.057C290.722 581.085 294.043 578.79 297.396 576.089C298.362 575.31 299.261 575.421 300.469 575.279L301.039 578.975C296.532 580.949 291.885 582.965 286.89 583.057Z"/>
	<path fill="#F6BBAD" d="M87.7591 738.13C89.7421 718.439 97.2528 698.668 106.817 681.375C125.293 647.968 148.818 638.51 183.476 628.59C185.392 631.633 187.169 634.775 188.994 637.874C188.6 638.325 188.291 638.865 187.814 639.227C187.446 639.505 161.116 648.414 157.112 650.293C147.85 654.641 139.093 660.192 131.826 667.444C122.835 676.417 115.448 688.822 110.085 700.312C104.347 712.603 98.2819 729.991 88.6715 739.726L88.1396 739.491L87.7591 738.13Z"/>
	<path fill="#5F809B" d="M156.479 318.238C160.381 310.557 165.573 303.738 171.398 297.407Q172.488 296.225 173.606 295.071Q174.725 293.917 175.872 292.79Q177.018 291.664 178.192 290.566Q179.367 289.468 180.567 288.399Q181.768 287.331 182.995 286.292Q184.222 285.253 185.474 284.245Q186.726 283.237 188.003 282.261Q189.279 281.284 190.58 280.339Q191.88 279.394 193.203 278.481Q194.526 277.568 195.872 276.688Q197.217 275.809 198.584 274.962Q199.95 274.116 201.337 273.304Q202.724 272.491 204.131 271.713Q205.538 270.935 206.963 270.192Q208.389 269.449 209.832 268.742Q211.275 268.034 212.736 267.362Q214.196 266.691 215.673 266.055Q217.149 265.42 218.641 264.821Q220.132 264.222 221.638 263.66Q223.144 263.098 224.664 262.573Q226.183 262.048 227.715 261.561Q229.247 261.074 230.791 260.625Q232.334 260.176 233.888 259.765Q235.442 259.354 237.006 258.982Q238.57 258.61 240.142 258.276Q241.714 257.942 243.295 257.647Q244.875 257.353 246.462 257.097Q248.049 256.841 249.642 256.624Q251.234 256.408 252.832 256.231Q254.43 256.053 256.031 255.916Q257.633 255.778 259.237 255.68Q260.842 255.582 262.448 255.523C274.114 255.099 306.014 257.471 314.699 265.548C315.387 267.816 314.478 270.562 314.066 272.858C313.368 273.535 312.865 274.412 311.862 274.382C308.544 274.282 304.436 272.673 301.183 271.863C294.955 270.311 288.634 268.871 282.26 268.06C248.903 263.817 212.593 275.892 187.679 298.192Q182.112 303.215 177.283 308.951C173.795 313.05 165.913 326.316 160.195 325.767C159.221 325.674 158.445 325.084 157.929 324.263C156.735 322.364 156.551 320.423 156.479 318.238Z"/>
	<path fill="#24384F" d="M139.393 472.812C145.8 476.742 152.806 480.296 160.038 482.413C162.926 483.259 165.921 483.639 168.785 484.592C169.912 484.967 170.849 485.384 171.335 486.519C172.675 489.647 172.031 494.891 172.006 498.327C171.944 506.683 170.121 540.212 172.837 545.867C175.051 547.194 179.519 545.607 181.979 545.075C185.722 546.945 187.526 548.409 189.874 551.946C189.958 555.503 190.492 572.393 188.812 574.352C187.494 575.889 183.479 577.857 181.427 577.778C177.888 577.643 175.717 575.012 173.534 572.58C172.223 566.907 172.383 561.319 172.403 555.541C167.916 555.774 162.33 556.178 157.98 554.97C154.645 554.044 157.637 543.561 154.781 538.568C152.811 535.124 149.665 534.058 146.104 532.981C145.52 532.959 144.829 532.898 144.243 532.995C140.23 533.656 137.598 537.495 135.385 540.567C135.574 549.857 137.155 589.171 134.84 594.844C134.313 594.961 134.278 595.006 133.653 594.931C129.34 594.406 120.442 586 117.988 582.476C109.376 570.113 109.664 553.375 114.828 539.662C118.987 528.621 125.517 518.457 130.027 507.57C134.688 496.319 137.257 484.744 139.393 472.812Z"/>
	<path fill="#24384F" d="M396.473 473.979C397.488 474.132 397.042 473.9 397.762 474.761C399.151 487.004 403.116 498.973 408.091 510.24C416.343 528.927 430.062 547.853 425.831 569.299C424.147 577.835 418.751 585.756 411.5 590.56C409.107 592.145 405.362 595.133 402.411 594.528C399.419 590.445 402.387 550.609 402.251 541.848C401.174 539.888 400.013 537.909 398.529 536.225C396.512 533.937 394.313 533.398 391.382 533.142C389.079 533.669 386.458 534.535 384.664 536.128C379.793 540.452 380.83 549.782 380.673 555.721C375.307 556.109 369.908 555.869 364.55 555.486L364.671 570.741C362.371 574.366 359.628 575.865 355.991 577.906C352.034 576.336 350.065 574.763 347.525 571.337C347.031 566.396 346.187 548.012 347.71 544.091C348.969 540.85 352.747 539.507 355.729 538.335C358.766 539.576 361.368 541.062 364.116 542.85C366.206 530.526 363.557 491.971 365.714 486.165C365.779 485.99 366.095 485.391 366.324 485.248C370.13 482.875 376.608 482.692 381.013 481.1C386.342 479.174 391.397 476.479 396.473 473.979Z"/>
	<path fill="#FEFEFB" d="M236.603 578.536L237.148 578.668C242.231 579.944 247.009 582.187 252.065 583.561C262.312 586.346 276.725 586.075 286.89 583.057C291.885 582.965 296.532 580.949 301.039 578.975C301.755 582.94 302.521 586.797 303.922 590.59C308.81 603.819 318.718 613.883 331.381 619.774C326.562 629.686 316.566 638.715 307.22 644.331C290.117 654.609 268.983 656.909 249.761 652.126C231.122 647.487 215.857 636.187 205.984 619.749C206.108 619.698 206.234 619.65 206.358 619.598C206.564 619.511 206.768 619.418 206.975 619.332C209.805 618.167 212.207 616.564 214.692 614.789C227.418 605.7 234.021 593.818 236.603 578.536Z"/>
	<path fill="#DFF8FB" d="M115.702 801.652C120.232 790.686 128.856 766.498 136.464 758.78Q137.175 758.065 137.94 757.408Q138.705 756.75 139.518 756.154Q140.332 755.558 141.189 755.027Q142.046 754.495 142.942 754.032Q143.838 753.569 144.767 753.177Q145.696 752.785 146.653 752.467Q147.61 752.148 148.589 751.904Q149.567 751.661 150.562 751.494C157.124 750.425 164.149 750.884 170.789 750.898L199.969 750.941L305.575 750.976C304.695 759.725 303.887 780.448 300.728 787.579Q298.605 785.365 296.236 783.415C286.186 775.194 276.132 772.292 263.278 773.639C261.215 772.363 258.918 772.831 256.655 773.385C252.352 774.44 248.499 776.725 244.128 777.621C239.672 781.628 237.195 786.696 232.997 790.742C233.589 798.98 232.712 805.353 236.661 812.938C229.002 813.499 221.451 814.31 213.76 814.4C212.883 814.41 213.163 814.409 212.2 814.158Q211.735 814.655 211.255 815.136C203.847 822.519 192.379 824.904 182.28 824.741C170.882 824.556 161.413 821.09 153.412 812.904C146.587 811.678 140.055 809.315 133.334 807.657C128.093 806.364 122.633 805.745 117.305 804.868C116.205 803.928 116.141 802.994 115.702 801.652Z"/>
	<path fill="#FD7F8F" d="M149.315 800.624C149.589 798.881 149.543 797.029 149.759 795.264C150.46 789.521 153.328 785.094 157.926 781.642C167.493 774.46 180.708 772.381 192.304 774.328C200.008 775.622 208.11 779.465 212.726 785.935C214.703 788.824 216.336 791.532 217.055 795.022Q217.144 795.649 217.203 796.279Q217.261 796.909 217.289 797.542Q217.317 798.174 217.314 798.807Q217.311 799.44 217.277 800.072Q217.243 800.704 217.179 801.334Q217.114 801.963 217.019 802.589Q216.924 803.215 216.798 803.835Q216.673 804.456 216.517 805.069Q216.361 805.683 216.176 806.288Q215.991 806.893 215.776 807.489Q215.561 808.084 215.318 808.669Q215.074 809.253 214.803 809.825Q214.531 810.396 214.232 810.954Q213.933 811.512 213.607 812.055Q213.281 812.597 212.929 813.124Q212.577 813.65 212.2 814.158Q211.735 814.655 211.255 815.136C203.847 822.519 192.379 824.904 182.28 824.741C170.882 824.556 161.413 821.09 153.412 812.904C151.294 808.908 150.057 805.076 149.315 800.624Z"/>
	<path fill="#EE6878" d="M204.526 804.991C205.483 801.027 208.777 799.515 210.377 796.006C211.696 793.114 211.583 789.726 212.489 786.704L212.726 785.935C214.703 788.824 216.336 791.532 217.055 795.022C212.464 796.674 208.945 802.448 204.526 804.991Z"/>
	<path fill="#F25073" d="M204.526 804.991C208.945 802.448 212.464 796.674 217.055 795.022Q217.144 795.649 217.203 796.279Q217.261 796.909 217.289 797.542Q217.317 798.174 217.314 798.807Q217.311 799.44 217.277 800.072Q217.243 800.704 217.179 801.334Q217.114 801.963 217.019 802.589Q216.924 803.215 216.798 803.835Q216.673 804.456 216.517 805.069Q216.361 805.683 216.176 806.288Q215.991 806.893 215.776 807.489Q215.561 808.084 215.318 808.669Q215.074 809.253 214.803 809.825Q214.531 810.396 214.232 810.954Q213.933 811.512 213.607 812.055Q213.281 812.597 212.929 813.124Q212.577 813.65 212.2 814.158Q211.735 814.655 211.255 815.136C203.847 822.519 192.379 824.904 182.28 824.741C170.882 824.556 161.413 821.09 153.412 812.904C151.294 808.908 150.057 805.076 149.315 800.624C154.053 799.191 162.364 805.25 167.454 806.776C168.018 806.945 168.577 807.149 169.135 807.336C172.128 808.011 175.06 808.682 178.121 808.966C184.201 809.207 192.367 808.603 198.242 807.122C200.388 806.581 202.398 805.61 204.526 804.991Z"/>
	<path fill="#BAEAF6" d="M244.128 777.621C248.499 776.725 252.352 774.44 256.655 773.385C258.918 772.831 261.215 772.363 263.278 773.639C276.132 772.292 286.186 775.194 296.236 783.415Q298.605 785.365 300.728 787.579C299.866 788.7 299.131 789.789 298.417 791.009C298.394 793.468 298.309 795.885 298.695 798.322C299.298 800.401 300.166 801.579 301.553 803.212L302.833 804.719C308.329 807.261 315.121 805.54 320.892 804.68C334.385 802.842 346.881 800.828 359.884 796.649C363.867 794.84 367.538 792.849 371.099 790.306C373.643 788.244 375.722 785.658 377.885 783.21C382.486 785.389 385.067 788.896 386.853 793.593L387.537 796.204C387.569 796.353 387.602 796.502 387.633 796.652C388.421 800.572 388.967 805.019 388.612 808.998C388.553 809.66 388.503 810.321 388.439 810.982C388.902 811.45 389.081 811.866 389.794 811.906C392.116 812.039 396.771 809.306 399.125 808.46C403.256 806.974 407.735 806.09 412.07 805.465C414.754 805.078 420.367 805.467 422.378 804.119C426.14 811.873 429.209 820.816 426.152 829.323C424.182 834.805 420.312 838.583 415.056 840.957C411.284 842.66 407.735 842.945 403.674 843.069C384.736 843.647 365.649 843.176 346.698 843.177L242.622 843.124L167.935 843.162C155.736 843.166 143.329 843.642 131.148 843.064C128.09 842.918 125.013 842.435 122.152 841.311C117.529 839.496 113.281 834.936 111.376 830.408C107.1 820.246 111.972 811.036 115.702 801.652C116.141 802.994 116.205 803.928 117.305 804.868C122.633 805.745 128.093 806.364 133.334 807.657C140.055 809.315 146.587 811.678 153.412 812.904C161.413 821.09 170.882 824.556 182.28 824.741C192.379 824.904 203.847 822.519 211.255 815.136Q211.735 814.655 212.2 814.158C213.163 814.409 212.883 814.41 213.76 814.4C221.451 814.31 229.002 813.499 236.661 812.938C232.712 805.353 233.589 798.98 232.997 790.742C237.195 786.696 239.672 781.628 244.128 777.621Z"/>
	<path fill="#DFF8FB" d="M308.867 807.037C312.016 807.35 314.439 806.719 317.498 806.677C319.226 806.653 319.487 807.448 320.526 808.631Q320.831 810.637 321.024 812.656C320.292 813.517 320.093 813.469 318.997 813.579C315.624 813.915 304.478 813.743 301.439 812.901C303.571 810.629 306.27 808.738 308.867 807.037Z"/>
	<path fill="#19C8CD" d="M298.695 798.322C299.298 800.401 300.166 801.579 301.553 803.212L302.833 804.719C301.9 807.272 300.899 809.701 299.702 812.143C299.333 812.772 299.038 813.23 298.467 813.701C292.786 818.394 287.932 821.678 280.624 823.219C269.284 825.611 254.832 825.457 244.862 818.771C238.199 814.303 236.407 809.255 234.88 801.825C235.773 800.899 237.311 800.159 238.421 799.468C242.779 801.735 246.006 806.266 250.758 807.864C260.657 811.192 283.728 810.807 292.972 805.714C296.223 803.922 297.68 801.824 298.695 798.322Z"/>
	<defs>
		<linearGradient id="gradient_0" gradientUnits="userSpaceOnUse" x1="353.97821" y1="789.5047" x2="355.34909" y2="823.64661">
			<stop offset="0" stop-color="#1FA8F6"/>
			<stop offset="1" stop-color="#0A90F8"/>
		</linearGradient>
	</defs>
	<path fill="url(#gradient_0)" d="M377.885 783.21C382.486 785.389 385.067 788.896 386.853 793.593L387.537 796.204C387.034 803.445 386.931 811.293 380.916 816.406C372.215 823.802 358.321 825.679 347.352 824.533C338.951 823.655 329.862 820.575 324.314 813.878C322.487 811.673 322.426 809.458 321.319 806.98L320.892 804.68C334.385 802.842 346.881 800.828 359.884 796.649C363.867 794.84 367.538 792.849 371.099 790.306C373.643 788.244 375.722 785.658 377.885 783.21Z"/>
	<path fill="#44A0E2" d="M377.885 783.21C382.486 785.389 385.067 788.896 386.853 793.593C383.943 791.728 382.302 789.786 380.18 787.11C377.982 788.609 375.829 789.942 373.458 791.161C370.414 794.06 365.88 797.189 361.435 796.965C360.831 796.934 360.492 796.806 359.884 796.649C363.867 794.84 367.538 792.849 371.099 790.306C373.643 788.244 375.722 785.658 377.885 783.21Z"/>
	<path fill="#33E3C4" d="M263.278 773.639C276.132 772.292 286.186 775.194 296.236 783.415Q298.605 785.365 300.728 787.579C299.866 788.7 299.131 789.789 298.417 791.009C298.394 793.468 298.309 795.885 298.695 798.322C297.68 801.824 296.223 803.922 292.972 805.714C283.728 810.807 260.657 811.192 250.758 807.864C246.006 806.266 242.779 801.735 238.421 799.468C237.311 800.159 235.773 800.899 234.88 801.825C234.805 801.55 234.705 801.282 234.656 801.002C233.98 797.165 235.615 791.48 237.648 788.29C243.32 779.387 253.428 775.695 263.278 773.639Z"/>
	<path fill="#24384F" d="M156.479 318.238C156.551 320.423 156.735 322.364 157.929 324.263C158.445 325.084 159.221 325.674 160.195 325.767C165.913 326.316 173.795 313.05 177.283 308.951Q182.112 303.215 187.679 298.192C212.593 275.892 248.903 263.817 282.26 268.06C288.634 268.871 294.955 270.311 301.183 271.863C304.436 272.673 308.544 274.282 311.862 274.382C312.865 274.412 313.368 273.535 314.066 272.858C314.445 278.562 314.372 284.515 319.189 288.539C321.499 290.469 323.792 291.208 326.666 291.911C326.943 291.979 327.219 292.052 327.496 292.123C331.472 291.258 333.906 290.384 337.22 287.931C337.251 287.908 337.288 287.895 337.322 287.878C340.205 291.248 343.763 293.955 347.02 296.948C350.664 300.297 354.161 303.847 357.603 307.401C362.826 312.795 367.312 320.065 373.07 324.709L373.803 325.311C375.775 323.968 378.598 322.439 379.089 319.884C379.335 318.604 379.122 317.098 379.03 315.802C382.974 320.843 385.525 326.362 387.986 332.245C395.539 350.296 398.153 367.671 397.922 387.169C372.451 383.649 343.23 361.917 328.033 341.925Q325.209 338.263 323.073 334.161C326.218 325.94 332.113 311.801 328.336 303.206C327.228 300.685 325.201 299.077 322.631 298.19C319.855 297.231 317.151 297.238 314.495 298.552C307.781 301.873 306.305 316.094 302.708 322.645C287.244 350.807 259.018 369.806 227.454 375.28C210.813 378.165 194.352 377.935 177.547 377.978C164.784 378.011 151.601 379.584 138.955 377.858C140.436 362.238 143.255 345.763 149.649 331.321C151.661 326.776 154.365 322.684 156.479 318.238Z"/>
	<path fill="#FE8B79" d="M188.994 637.874C192.752 642.553 196.202 647.359 200.453 651.636C215.471 666.744 236.355 675.695 257.404 678.003C282.733 680.779 310.301 673.872 330.231 657.634C336.919 652.185 343.32 644.93 348.056 637.716C364.569 646.303 383.699 649.141 398.308 661.473C399.453 662.44 401.067 663.494 401.634 664.917C399.273 664.255 397.948 664.448 395.835 665.709C389.34 669.587 382.455 678.18 377.09 683.631C370.147 690.684 362.955 697.57 356.184 704.784C352.766 708.424 349.296 713.55 345.05 716.163C340.354 719.051 330.602 719.407 323.962 722.525C320.959 724.253 318.106 725.891 315.504 728.205C303.181 728.546 290.828 728.292 278.5 728.32L200.068 728.327C184.878 728.328 153.664 726.811 140.009 730.505L138.294 730.958C132.115 729.823 126.278 736.098 120.338 737.982C119.194 739.899 118.27 741.864 116.394 743.15L115.745 743.604C114.692 745.782 113.894 747.509 113.752 749.982C112.757 752.171 111.846 754.228 110.341 756.132C107.844 756.901 104.043 756.913 101.438 756.704C96.2847 756.29 90.4056 752.016 87.2898 748.05C87.3618 744.747 87.3298 741.408 87.7591 738.13L88.1396 739.491L88.6715 739.726C98.2819 729.991 104.347 712.603 110.085 700.312C115.448 688.822 122.835 676.417 131.826 667.444C139.093 660.192 147.85 654.641 157.112 650.293C161.116 648.414 187.446 639.505 187.814 639.227C188.291 638.865 188.6 638.325 188.994 637.874Z"/>
	<path fill="#FD7F8F" d="M115.745 743.604C118.868 733.806 123.452 715.444 132.294 709.344C134.192 708.034 136.38 707.301 138.681 707.837C142.452 708.717 145.12 712.514 146.987 715.636L147.047 722.288C147.198 722.244 147.349 722.197 147.501 722.156C147.755 722.087 148.01 722.026 148.264 721.959C156.438 719.784 166.976 720.996 175.496 720.999L213.381 721.003L278.914 721.014C290.381 721.017 301.956 720.697 313.413 721.101C317.008 721.227 320.447 721.784 323.962 722.525C320.959 724.253 318.106 725.891 315.504 728.205C303.181 728.546 290.828 728.292 278.5 728.32L200.068 728.327C184.878 728.328 153.664 726.811 140.009 730.505L138.294 730.958C132.115 729.823 126.278 736.098 120.338 737.982C119.194 739.899 118.27 741.864 116.394 743.15L115.745 743.604Z"/>
	<path fill="#F25073" d="M140.303 718.811L140.787 718.628C142.241 719.072 142.89 719.362 144.01 720.467L143.907 721.279C142.478 722.181 141.336 722.133 139.713 722.159C138.141 721.875 137.291 721.581 135.947 720.72L135.823 719.816C137.312 718.721 138.484 718.93 140.303 718.811Z"/>
	<path fill="#FEFEFB" d="M309.267 357.369C312.927 360.859 315.988 365.311 319.509 369.01Q323.568 373.263 327.964 377.168Q332.36 381.072 337.063 384.601Q341.766 388.13 346.743 391.26Q351.721 394.389 356.939 397.098C356.232 424.654 354.141 454.714 343.47 480.416C334.186 502.78 318.134 522.067 295.346 531.306C275.572 539.323 256.522 537.122 237.3 529.058C229.271 524.974 221.854 519.348 215.478 513.008C187.517 485.202 181.535 440.79 181.432 402.986Q185.297 403.164 189.166 403.112C225.003 402.933 261.411 395.648 290.786 373.942C297.475 368.999 303.433 363.27 309.267 357.369Z"/>
	<path fill="#15212D" d="M312.362 409.053C315.73 408.652 319.068 408.718 322.256 409.989C326.656 411.743 330.003 415.288 331.666 419.712C333.181 423.743 333.125 428.192 331.245 432.09C328.777 437.21 324.399 439.656 319.259 441.417C315.261 441.919 311.792 441.778 308.116 439.965Q307.396 439.614 306.716 439.192Q306.035 438.771 305.399 438.283Q304.764 437.796 304.18 437.248Q303.597 436.699 303.071 436.095Q302.545 435.491 302.082 434.838Q301.619 434.185 301.224 433.488Q300.829 432.792 300.505 432.059Q300.181 431.327 299.932 430.566C298.498 426.207 298.905 421.196 301.124 417.166C303.67 412.544 307.511 410.499 312.362 409.053Z"/>
	<path fill="#15212D" d="M218.965 408.598C222.314 408.317 225.38 408.538 228.503 409.902C232.921 411.831 236.191 415.555 237.739 420.102C239.151 424.247 238.974 428.667 236.89 432.549C234.236 437.492 229.918 439.896 224.744 441.436C220.996 442.091 217.644 441.889 214.173 440.188C210.175 438.229 207.266 434.609 205.97 430.374Q205.716 429.527 205.549 428.659Q205.381 427.79 205.3 426.91Q205.22 426.029 205.228 425.145Q205.235 424.26 205.331 423.381Q205.427 422.502 205.609 421.637Q205.792 420.772 206.06 419.929Q206.329 419.086 206.679 418.275Q207.03 417.463 207.46 416.69C210.097 411.921 213.934 409.955 218.965 408.598Z"/>
	<path fill="#FEFEFB" d="M298.545 235.147C304.411 230.683 309.741 225.564 315.494 220.954C327.796 211.095 340.868 201.748 354.305 193.501Q357.571 191.53 360.877 189.629Q364.183 187.727 367.528 185.896Q370.874 184.064 374.257 182.303Q377.64 180.542 381.059 178.852Q384.479 177.162 387.933 175.545Q391.387 173.927 394.874 172.383Q398.362 170.838 401.881 169.367Q405.4 167.896 408.949 166.5Q412.498 165.103 416.075 163.781Q419.653 162.459 423.258 161.212Q426.862 159.966 430.492 158.795Q434.122 157.625 437.776 156.531Q441.43 155.437 445.106 154.42Q448.782 153.403 452.478 152.463Q456.175 151.523 459.89 150.662Q463.605 149.8 467.338 149.016Q471.071 148.233 474.819 147.528Q478.568 146.823 482.33 146.196Q486.092 145.57 489.867 145.023Q493.641 144.476 497.427 144.009Q501.212 143.541 505.006 143.153Q508.8 142.765 512.602 142.457Q516.404 142.149 520.211 141.92Q524.018 141.692 527.829 141.544Q531.64 141.395 535.454 141.327Q539.267 141.259 543.081 141.271Q546.895 141.282 550.708 141.374Q554.521 141.466 558.331 141.638Q562.142 141.81 565.947 142.062Q569.753 142.314 573.553 142.646Q577.352 142.978 581.144 143.389Q584.936 143.801 588.718 144.292Q593.071 144.895 597.407 145.604Q601.744 146.313 606.061 147.128Q610.379 147.943 614.676 148.864Q618.972 149.785 623.245 150.811Q627.517 151.837 631.763 152.967Q636.01 154.097 640.227 155.332Q644.444 156.566 648.63 157.903Q652.815 159.24 656.967 160.679Q661.118 162.119 665.234 163.66Q669.349 165.2 673.425 166.842Q677.501 168.483 681.535 170.223Q685.57 171.964 689.56 173.803Q693.551 175.642 697.496 177.579Q701.44 179.515 705.336 181.548Q709.231 183.58 713.076 185.707Q716.921 187.835 720.712 190.056Q724.504 192.277 728.239 194.59Q731.975 196.904 735.653 199.308Q739.331 201.712 742.949 204.206Q746.567 206.7 750.122 209.281Q753.678 211.863 757.169 214.531Q760.661 217.199 764.086 219.952Q767.51 222.705 770.867 225.541Q774.223 228.377 777.509 231.294Q780.794 234.212 784.008 237.209Q787.221 240.206 790.359 243.281Q793.498 246.356 796.561 249.508Q799.623 252.659 802.607 255.884Q805.591 259.109 808.496 262.407Q811.4 265.704 814.222 269.072Q817.045 272.439 819.784 275.875Q822.523 279.311 825.177 282.813Q828.595 287.309 831.859 291.917Q835.123 296.525 838.23 301.241Q841.337 305.957 844.283 310.775Q847.23 315.593 850.012 320.508Q852.794 325.422 855.408 330.428Q858.023 335.434 860.467 340.525Q862.912 345.616 865.183 350.786Q867.454 355.957 869.55 361.201Q871.645 366.445 873.563 371.757Q875.48 377.069 877.218 382.442Q878.955 387.816 880.51 393.245Q882.065 398.674 883.436 404.152Q884.808 409.63 885.993 415.152Q887.179 420.673 888.177 426.232Q889.176 431.79 889.987 437.379Q890.797 442.968 891.419 448.581C892.297 457.245 893.178 466.04 893.05 474.757C892.894 476.519 892.692 478.087 892.136 479.772C889.376 488.128 888.748 499.596 887.014 508.461Q884.389 522.181 880.838 535.69Q877.288 549.2 872.829 562.438C865.735 583.766 855.174 604.293 843.489 623.441C813.168 673.128 775.045 713.013 725.747 744.249C718.769 748.67 711.784 753.32 704.431 757.09C685.104 766.996 665.396 775.942 644.711 782.651Q639.505 784.345 634.246 785.868Q628.987 787.391 623.681 788.742Q618.376 790.094 613.029 791.272Q607.682 792.45 602.3 793.453Q596.918 794.456 591.506 795.284Q586.094 796.111 580.658 796.762Q575.222 797.413 569.767 797.887Q564.313 798.361 558.846 798.657Q553.379 798.953 547.905 799.071Q542.431 799.189 536.957 799.129Q531.482 799.068 526.012 798.83Q520.543 798.592 515.083 798.175Q509.624 797.759 504.182 797.165Q498.739 796.572 493.318 795.801Q487.898 795.031 482.505 794.084Q477.113 793.138 471.754 792.016C462 789.956 452.233 787.746 442.745 784.651C440.703 783.984 439.115 783.086 437.382 781.81C433.598 775.774 429.435 763.385 426.628 756.465C428.603 755.808 436.082 756.996 438.814 756.979C443.171 754.627 445.712 751.515 449.372 748.376L450.334 748.451C451.48 751.546 453.208 754.248 456.022 756.081C458.629 757.778 461.766 758.446 464.815 757.753C467.754 757.086 470.207 755.203 471.713 752.603C476.17 744.911 470.779 722.768 468.58 713.892C466.573 708.924 462.593 697.954 461.713 692.987C461.139 689.753 461.59 686.293 461.237 682.995L461.178 682.472C459.739 675.308 456.087 669.442 452.304 663.327C455.923 658.294 463.285 653.006 468.027 648.73L471.644 645.344C481.655 635.357 492.798 626.111 502.239 615.623C502.545 614.474 502.806 613.333 502.907 612.145C503.207 608.64 502.745 605.134 500.352 602.401C498.127 599.86 494.67 597.813 491.244 597.671C483.162 597.336 475.913 606.998 470.511 612.132C467.935 613.186 465.775 614.815 463.525 616.42C456.973 616.287 420.472 617.061 417.539 616.011L417.049 615.39C431.257 607.977 439.328 597.922 446.6 584.02C450.501 573.021 450.894 562.626 449.292 551.184C447.12 539.05 441.987 528.327 437.401 516.992C429.651 501.762 422.069 486.111 420.547 468.856C419.471 459.271 418.843 448.449 419.899 438.84C420.228 426.734 420.624 414.559 421.506 402.481C421.518 392.188 421.913 381.765 421.309 371.494C419.683 362.616 419.605 354.219 416.857 345.415L415.037 338.565C411.424 327.715 407.024 317.597 401.641 307.508C394.111 295.127 385.647 284.623 375.586 274.257C352.758 254.323 328.314 241.406 298.545 235.147Z"/>
	<path fill="#EFB075" d="M451.469 275.443C456.859 274.928 500.265 273.987 502.988 275.312C498.141 277.758 495.293 282.188 491.1 285.401C489.699 286.475 488.014 286.939 486.556 287.871C487.118 287.22 487.676 286.568 488.198 285.883C489.693 283.924 489.274 282.364 488.926 280.097C486.956 278.963 484.853 277.614 482.709 276.864C473.589 273.672 461.666 276.343 452.03 275.498L451.469 275.443Z"/>
	<path fill="#FC8318" d="M461.178 682.472C462.096 682.059 462.756 681.821 463.779 681.784C474.059 681.413 484.456 681.896 494.752 681.807C500.693 681.757 506.659 681.076 512.587 681.17C515.111 681.21 517.519 681.466 519.994 681.957C522.912 685.857 522.403 690.9 526.255 694.625C527.107 697.757 530.901 701.271 532.768 704.033C536.221 710.062 539.023 709.514 543.999 713.064C539.875 713.834 535.274 713.286 531.059 713.332C522.811 713.421 471.197 712.566 468.58 713.892C466.573 708.924 462.593 697.954 461.713 692.987C461.139 689.753 461.59 686.293 461.237 682.995L461.178 682.472Z"/>
	<path fill="#FDA353" d="M471.644 645.344C476.812 647.153 484.036 644.687 489.546 644.766C495.36 644.849 500.397 646.821 506.027 647.385C511.057 647.889 516.17 647.04 521.224 647.545C523.835 647.615 541.683 648.756 542.708 649.778C542.845 649.914 542.927 650.097 543.036 650.256C542.779 650.48 542.525 650.709 542.265 650.929C541.488 651.586 540.801 651.941 539.887 652.362C535.645 654.313 531.125 658.604 528.909 662.715C525.491 667.982 522.976 674.374 523.048 680.76L523.163 681.479C523.971 686.697 525.035 689.677 526.255 694.625C522.403 690.9 522.912 685.857 519.994 681.957C517.519 681.466 515.111 681.21 512.587 681.17C506.659 681.076 500.693 681.757 494.752 681.807C484.456 681.896 474.059 681.413 463.779 681.784C462.756 681.821 462.096 682.059 461.178 682.472C459.739 675.308 456.087 669.442 452.304 663.327C455.923 658.294 463.285 653.006 468.027 648.73L471.644 645.344Z"/>
	<path fill="#FD7F8F" d="M471.644 645.344C476.812 647.153 484.036 644.687 489.546 644.766C495.36 644.849 500.397 646.821 506.027 647.385C511.057 647.889 516.17 647.04 521.224 647.545C513.164 649.092 492.449 648.541 483.295 648.388C478.333 648.304 472.885 647.677 468.027 648.73L471.644 645.344Z"/>
	<path fill="#FDA353" d="M375.586 274.257C384.733 276.386 395.582 275.41 404.959 275.395Q428.214 275.258 451.469 275.443L452.03 275.498C461.666 276.343 473.589 273.672 482.709 276.864C484.853 277.614 486.956 278.963 488.926 280.097C489.274 282.364 489.693 283.924 488.198 285.883C487.676 286.568 487.118 287.22 486.556 287.871C485.153 289.888 481.995 297.574 482.307 299.983C482.334 300.189 482.419 300.382 482.475 300.582C481.178 305.107 481.087 308.963 481.471 313.636C480.401 312.316 479.841 310.564 478.763 309.303C478.602 309.114 477.931 308.381 477.596 308.223C474.88 306.94 411.815 308.347 401.641 307.508C394.111 295.127 385.647 284.623 375.586 274.257Z"/>
	<path fill="#FD7F8F" d="M420.547 468.856C419.471 459.271 418.843 448.449 419.899 438.84Q419.864 445.904 419.973 452.968L511.841 453.065C521.606 453.057 531.546 452.427 541.277 452.677C542.251 452.702 543.044 452.845 543.933 453.257C540.52 455.558 536.959 457.788 533.845 460.486C533.757 460.643 533.671 460.801 533.58 460.957C532.095 463.505 530.037 465.244 528.256 467.532C523.921 473.102 521.427 482.204 522.038 489.214C523.725 492.288 524.593 496.602 525.623 500.003C526.577 503.155 529.802 505.302 530.724 508.397C531.606 510.015 531.951 511.157 532.159 512.983C531.732 514.169 531.763 514.375 530.55 514.913C519.727 519.709 498.232 515.981 485.966 517.546C479.78 517.27 473.514 516.812 467.341 517.425C457.372 517.321 447.353 517.617 437.401 516.992C429.651 501.762 422.069 486.111 420.547 468.856Z"/>
	<path fill="#F25073" d="M420.547 468.856C423.345 474.514 423.189 481.305 425.696 487.255Q462.542 487.464 499.387 487.175C506.502 487.117 513.649 486.264 520.737 486.347C521.409 487.296 521.705 488.103 522.038 489.214C523.725 492.288 524.593 496.602 525.623 500.003C526.577 503.155 529.802 505.302 530.724 508.397C531.606 510.015 531.951 511.157 532.159 512.983C531.732 514.169 531.763 514.375 530.55 514.913C519.727 519.709 498.232 515.981 485.966 517.546C479.78 517.27 473.514 516.812 467.341 517.425C457.372 517.321 447.353 517.617 437.401 516.992C429.651 501.762 422.069 486.111 420.547 468.856Z"/>
	<path fill="#0DA5B2" d="M523.048 680.76L524.481 680.058Q524.679 678.697 524.891 677.338L525.487 676.929C526.016 678.701 526.215 680.509 527.567 681.8C530.728 682.052 533.788 681.439 536.942 681.589C542.314 681.844 547.601 682.898 552.996 682.991C573.456 683.341 748.737 681.737 752.73 684.081L753.369 684.94C751.368 694.555 747.094 703.045 738.514 708.443C734.389 711.038 729.087 712.868 724.236 713.285C712.297 714.311 699.667 713.531 687.663 713.527L617.744 713.493L571.982 713.533C564.464 713.538 555.772 714.332 548.396 713.071L543.999 713.064C539.023 709.514 536.221 710.062 532.768 704.033C530.901 701.271 527.107 697.757 526.255 694.625C525.035 689.677 523.971 686.697 523.163 681.479L523.048 680.76Z"/>
	<path fill="#797F96" d="M532.768 704.033C537.429 707 544.687 709.21 548.396 713.071L543.999 713.064C539.023 709.514 536.221 710.062 532.768 704.033Z"/>
	<path fill="#F25073" d="M421.309 371.494L584.347 371.308C601.324 371.246 618.413 371.753 635.366 371.421C643.437 371.263 651.882 369.719 659.876 370.239C660.567 372.672 660.296 375.474 661.537 377.633C658.998 386.577 654.675 394.148 646.259 398.768C641.905 401.158 637.255 401.885 632.359 402.255C624.174 402.873 615.749 402.481 607.532 402.481L563.585 402.483L421.506 402.481C421.518 392.188 421.913 381.765 421.309 371.494Z"/>
	<path fill="#19C8CD" d="M558.308 647.463C566.63 645.961 581.641 647.008 590.547 647.019L656.79 647.028L703.25 646.984C710.499 646.977 719.436 646.071 726.533 647.505L727.942 647.618C732.011 649.426 736.391 651.126 740.259 653.321C740.337 653.485 740.411 653.651 740.492 653.813C741.842 656.499 743.879 657.756 745.737 659.964C751.424 666.723 755.077 676.023 753.369 684.94L752.73 684.081C748.737 681.737 573.456 683.341 552.996 682.991C547.601 682.898 542.314 681.844 536.942 681.589C533.788 681.439 530.728 682.052 527.567 681.8C526.215 680.509 526.016 678.701 525.487 676.929L524.891 677.338Q524.679 678.697 524.481 680.058L523.048 680.76C522.976 674.374 525.491 667.982 528.909 662.715C531.125 658.604 535.645 654.313 539.887 652.362C540.801 651.941 541.488 651.586 542.265 650.929C542.525 650.709 542.779 650.48 543.036 650.256C546.306 648.3 548.156 647.704 551.952 648.336C554.121 647.81 556.076 647.508 558.308 647.463Z"/>
	<path fill="#0DA5B2" d="M558.308 647.463C566.63 645.961 581.641 647.008 590.547 647.019L656.79 647.028L703.25 646.984C710.499 646.977 719.436 646.071 726.533 647.505C718.691 648.514 708.303 647.577 700.096 647.571C682.019 647.557 663.906 647.876 645.836 647.419C645.151 647.88 644.439 648.324 643.713 648.718C639.92 650.778 629.383 650.784 625.217 649.52C624.527 648.804 623.6 647.73 622.596 647.48C619.294 646.66 610.229 647.499 606.424 647.528C590.467 647.649 574.24 648.154 558.308 647.463Z"/>
	<path fill="#F25073" d="M502.239 615.623C503.122 616.103 503.639 616.201 504.649 616.224C519.066 616.555 533.568 616.144 547.997 616.179L658.023 616.162L699.776 616.152C707.126 616.149 716.011 617.02 723.179 615.466L729.813 615.452C734.91 615.554 748.401 614.52 752.272 617.993C752.368 618.079 752.411 618.209 752.481 618.317C752.321 620.756 752.214 623.124 752.337 625.573C749.233 633.969 743.681 641.935 735.306 645.739C732.896 646.833 730.567 647.408 727.942 647.618L726.533 647.505C719.436 646.071 710.499 646.977 703.25 646.984L656.79 647.028L590.547 647.019C581.641 647.008 566.63 645.961 558.308 647.463C556.076 647.508 554.121 647.81 551.952 648.336C548.156 647.704 546.306 648.3 543.036 650.256C542.927 650.097 542.845 649.914 542.708 649.778C541.683 648.756 523.835 647.615 521.224 647.545C516.17 647.04 511.057 647.889 506.027 647.385C500.397 646.821 495.36 644.849 489.546 644.766C484.036 644.687 476.812 647.153 471.644 645.344C481.655 635.357 492.798 626.111 502.239 615.623Z"/>
	<path fill="#FD7F8F" d="M401.641 307.508C411.815 308.347 474.88 306.94 477.596 308.223C477.931 308.381 478.602 309.114 478.763 309.303C479.841 310.564 480.401 312.316 481.471 313.636C484.651 321.637 489.37 330.856 496.961 335.512C499.345 336.922 501.938 337.741 504.543 338.638C513.848 340.116 524.373 339.133 533.845 339.097Q557.167 339.082 580.486 339.388C586.455 339.462 592.539 339.139 598.482 339.439C605.829 338.2 626.512 338.559 634.432 339.02C635.903 340.574 637.572 340.659 639.594 341.172C648.455 344.626 655.882 351.966 659.772 360.666C662.062 365.79 662.901 372.137 661.537 377.633C660.296 375.474 660.567 372.672 659.876 370.239C651.882 369.719 643.437 371.263 635.366 371.421C618.413 371.753 601.324 371.246 584.347 371.308L421.309 371.494C419.683 362.616 419.605 354.219 416.857 345.415L415.037 338.565C411.424 327.715 407.024 317.597 401.641 307.508Z"/>
	<path fill="#F6BBAD" d="M598.482 339.439C605.829 338.2 626.512 338.559 634.432 339.02C635.903 340.574 637.572 340.659 639.594 341.172C636.381 341.475 629.116 343.023 626.493 340.868C625.768 340.272 625.379 339.816 624.46 339.505C620.348 338.114 604.347 339.974 598.482 339.439Z"/>
	<path fill="#FE8B79" d="M496.961 335.512C499.345 336.922 501.938 337.741 504.543 338.638L500.526 342.149C490.229 340.066 465.888 343.844 459.734 341.768L461.178 340.913C461.337 340.96 461.492 341.02 461.653 341.055C463.756 341.512 487.609 340.957 489.183 340.404C481.042 338.24 464.352 339.274 455.205 339.295C448.393 339.311 441.591 339.085 434.776 339.142C429.997 339.182 425.146 339.773 420.416 339.096C419.641 338.985 419.199 339.007 418.453 339.227C417.582 340.085 417.765 339.581 417.743 340.584C417.704 342.439 417.582 343.707 416.857 345.415L415.037 338.565C422.729 337.801 431.062 338.505 438.815 338.502C451.898 338.496 464.995 338.172 478.075 338.382C483.444 338.468 490.094 339.91 495.262 339.045C496.578 337.896 496.536 337.173 496.961 335.512Z"/>
	<path fill="#FC8318" d="M401.641 307.508C411.815 308.347 474.88 306.94 477.596 308.223C477.931 308.381 478.602 309.114 478.763 309.303C479.841 310.564 480.401 312.316 481.471 313.636C484.651 321.637 489.37 330.856 496.961 335.512C496.536 337.173 496.578 337.896 495.262 339.045C490.094 339.91 483.444 338.468 478.075 338.382C464.995 338.172 451.898 338.496 438.815 338.502C431.062 338.505 422.729 337.801 415.037 338.565C411.424 327.715 407.024 317.597 401.641 307.508Z"/>
	<path fill="#FD7F8F" d="M449.292 551.184C451.776 551.931 471.344 553.328 472.985 552.55C473.237 552.431 473.472 552.211 473.684 552.03L473.98 552.027L474.982 552.51C475.471 558.322 477.121 563.659 478.806 569.212C480.48 570.604 482.061 571.788 483.987 572.809L485.051 574.182C485.904 578.66 491.146 579.58 489.419 582.8L487.236 584.057C501.338 584.191 515.687 584.688 529.766 583.924C546.83 584.526 564.155 583.901 581.245 583.888C599.762 583.875 618.426 584.447 636.922 583.645C637.099 583.677 637.275 583.711 637.452 583.74C644.523 584.889 652.659 584.135 659.834 584.112L704.451 584.013C712.181 584.02 720.982 583.456 728.459 585.709C735.936 587.962 744.275 594.547 748.922 600.745C752.312 605.266 755.16 615.114 754.112 620.797C753.811 622.436 753.018 624.063 752.337 625.573C752.214 623.124 752.321 620.756 752.481 618.317C752.411 618.209 752.368 618.079 752.272 617.993C748.401 614.52 734.91 615.554 729.813 615.452L723.179 615.466C716.011 617.02 707.126 616.149 699.776 616.152L658.023 616.162L547.997 616.179C533.568 616.144 519.066 616.555 504.649 616.224C503.639 616.201 503.122 616.103 502.239 615.623C502.545 614.474 502.806 613.333 502.907 612.145C503.207 608.64 502.745 605.134 500.352 602.401C498.127 599.86 494.67 597.813 491.244 597.671C483.162 597.336 475.913 606.998 470.511 612.132C467.935 613.186 465.775 614.815 463.525 616.42C456.973 616.287 420.472 617.061 417.539 616.011L417.049 615.39C431.257 607.977 439.328 597.922 446.6 584.02C450.501 573.021 450.894 562.626 449.292 551.184Z"/>
	<path fill="#EE6878" d="M744.433 601.963C744.62 600.535 744.15 600.012 743.527 598.739L743.974 598.74L744.284 599.071C745.527 600.378 747.797 601.609 748.252 603.255C747.895 604.32 747.545 605.209 746.954 606.167C746.11 605.431 745.319 604.764 744.665 603.849C744.032 602.964 744.261 602.969 744.433 601.963Z"/>
	<path fill="#EE6878" d="M729.813 615.452C733.77 614.335 738.115 615.122 742.182 613.983C743.664 613.568 743.298 611.669 747.47 610.424C747.556 610.539 747.641 610.657 747.729 610.771C748.663 611.976 749.381 612.447 750.703 613.155C751.391 613.523 751.812 613.981 752.308 614.57C752.477 615.573 752.929 617.406 752.481 618.317C752.411 618.209 752.368 618.079 752.272 617.993C748.401 614.52 734.91 615.554 729.813 615.452Z"/>
	<path fill="#0DA5B2" d="M449.292 551.184C451.776 551.931 471.344 553.328 472.985 552.55C473.237 552.431 473.472 552.211 473.684 552.03L473.98 552.027L474.982 552.51C475.471 558.322 477.121 563.659 478.806 569.212C480.48 570.604 482.061 571.788 483.987 572.809L485.051 574.182C485.904 578.66 491.146 579.58 489.419 582.8L487.236 584.057L446.6 584.02C450.501 573.021 450.894 562.626 449.292 551.184Z"/>
	<path fill="#44A0E2" d="M530.724 508.397C531.938 508.721 532.397 508.59 533.193 509.604C534.988 511.889 537.04 513.385 539.616 514.664C540.34 515.023 540.05 514.868 540.817 515.378C544.236 516.963 547.129 517.794 550.905 518.175C561.585 519.254 572.985 518.192 583.753 518.158C598.449 518.112 613.297 518.817 627.969 518.431C637.58 518.179 654.692 516.708 663.266 518.424L653.559 518.486C654.825 521.378 653.881 524.577 654.918 527.538C655.851 530.204 657.881 532.448 658.936 535.15C660.44 538.222 661.287 540.322 661.497 543.782C662.364 546.643 663.631 551.41 663.104 554.345C661.665 563.955 658.186 571.694 650.253 577.628Q648.777 578.735 647.189 579.674Q645.601 580.612 643.919 581.371Q642.238 582.13 640.483 582.7Q638.729 583.271 636.922 583.645C618.426 584.447 599.762 583.875 581.245 583.888C564.155 583.901 546.83 584.526 529.766 583.924C515.687 584.688 501.338 584.191 487.236 584.057L489.419 582.8C491.146 579.58 485.904 578.66 485.051 574.182L483.987 572.809C482.061 571.788 480.48 570.604 478.806 569.212C477.121 563.659 475.471 558.322 474.982 552.51L473.98 552.027L473.684 552.03C473.472 552.211 473.237 552.431 472.985 552.55C471.344 553.328 451.776 551.931 449.292 551.184C447.12 539.05 441.987 528.327 437.401 516.992C447.353 517.617 457.372 517.321 467.341 517.425C473.514 516.812 479.78 517.27 485.966 517.546C498.232 515.981 519.727 519.709 530.55 514.913C531.763 514.375 531.732 514.169 532.159 512.983C531.951 511.157 531.606 510.015 530.724 508.397Z"/>
	<path fill="#0DA5B2" d="M477.448 533.917C478.03 536.655 480.17 542.098 479.545 544.611L478.03 545.55C478.054 546.647 478.43 547.289 478.939 548.244C478.577 549.282 478.587 549.397 477.521 549.87C476.39 550.371 475.124 550.318 474.006 550.781C475.533 545.17 476.049 539.52 477.448 533.917Z"/>
	<path fill="#DFF8FB" d="M658.936 535.15C655.196 532.742 653.821 527.729 650.517 525.041C647.688 522.739 643.697 521.548 640.67 519.375L640.74 518.823C644.997 518.355 649.284 518.467 653.559 518.486C654.825 521.378 653.881 524.577 654.918 527.538C655.851 530.204 657.881 532.448 658.936 535.15Z"/>
	<path fill="#EE6878" d="M530.724 508.397C531.938 508.721 532.397 508.59 533.193 509.604C534.988 511.889 537.04 513.385 539.616 514.664C540.34 515.023 540.05 514.868 540.817 515.378C540.352 516.914 540.426 517.887 539.009 518.719C537.407 518.823 536.267 517.903 534.953 517.108C533.375 517.157 533.176 518.031 531.994 518.256C529.8 518.672 488.427 518.041 485.966 517.546C498.232 515.981 519.727 519.709 530.55 514.913C531.763 514.375 531.732 514.169 532.159 512.983C531.951 511.157 531.606 510.015 530.724 508.397Z"/>
	<defs>
		<linearGradient id="gradient_1" gradientUnits="userSpaceOnUse" x1="448.31995" y1="549.24194" x2="471.94922" y2="508.29492">
			<stop offset="0" stop-color="#17CEC9"/>
			<stop offset="1" stop-color="#24BED4"/>
		</linearGradient>
	</defs>
	<path fill="url(#gradient_1)" d="M437.401 516.992C447.353 517.617 457.372 517.321 467.341 517.425C474.697 517.838 483.291 519.721 490.378 519.219C490.188 519.455 489.342 519.471 488.996 519.498C485.606 519.762 481.739 518.271 479.017 520.73C478.509 522.822 478.633 523.194 479.41 525.138C478.508 527.932 477.617 530.97 477.448 533.917C476.049 539.52 475.533 545.17 474.006 550.781L474.12 551.667L473.98 552.027L473.684 552.03C473.472 552.211 473.237 552.431 472.985 552.55C471.344 553.328 451.776 551.931 449.292 551.184C447.12 539.05 441.987 528.327 437.401 516.992Z"/>
	<path fill="#19C8CD" d="M473.684 552.03C473.584 551.182 473.657 551.453 473.453 550.765C472.26 546.753 471.203 541.602 472.257 537.44C473.151 533.906 474.37 532.866 473.737 528.988C473.696 528.741 473.65 528.495 473.607 528.249C474.945 526.671 477.526 525.938 479.41 525.138C478.508 527.932 477.617 530.97 477.448 533.917C476.049 539.52 475.533 545.17 474.006 550.781L474.12 551.667L473.98 552.027L473.684 552.03Z"/>
	<path fill="#415EA1" d="M640.347 551.517C640.527 551.538 640.707 551.561 640.887 551.579C644.489 551.951 658.93 552.404 661.709 551.106C662.046 551.702 662.202 552.073 662.337 552.751C662.481 553.473 662.671 553.768 663.104 554.345C661.665 563.955 658.186 571.694 650.253 577.628Q648.777 578.735 647.189 579.674Q645.601 580.612 643.919 581.371Q642.238 582.13 640.483 582.7Q638.729 583.271 636.922 583.645C618.426 584.447 599.762 583.875 581.245 583.888C564.155 583.901 546.83 584.526 529.766 583.924C515.687 584.688 501.338 584.191 487.236 584.057L489.419 582.8C491.146 579.58 485.904 578.66 485.051 574.182L483.987 572.809C482.061 571.788 480.48 570.604 478.806 569.212C477.121 563.659 475.471 558.322 474.982 552.51C478.783 553.022 482.687 552.558 486.421 553.174C492.43 552.042 498.734 553.327 504.718 552.069Q554.275 551.273 603.838 551.572C616.008 551.524 628.179 552.089 640.347 551.517Z"/>
	<path fill="#5F809B" d="M474.982 552.51C478.783 553.022 482.687 552.558 486.421 553.174C483.208 553.894 479.666 553.613 476.388 553.443C476.856 563.759 481.574 564.614 483.987 572.809C482.061 571.788 480.48 570.604 478.806 569.212C477.121 563.659 475.471 558.322 474.982 552.51Z"/>
	<path fill="#5F809B" d="M485.051 574.182C489.097 577.285 493.574 579.678 497.862 582.417C503.222 582.426 526.578 581.365 529.766 583.924C515.687 584.688 501.338 584.191 487.236 584.057L489.419 582.8C491.146 579.58 485.904 578.66 485.051 574.182Z"/>
	<path fill="#19C8CD" d="M543.933 453.257C546.817 452.248 549.951 452.188 552.978 452.079C564.499 451.664 576.101 451.956 587.633 451.955L650.066 451.961L692.984 451.98C702.76 451.986 712.684 451.724 722.43 452.628C726.598 453.014 730.988 454.808 734.751 456.6C742.979 460.519 748.949 466.839 751.893 475.53C753.852 481.311 754.442 487.967 752.647 493.809C749.262 503.162 744.542 510.566 735.282 514.948C731.462 516.755 727.343 517.689 723.163 518.179C713.886 519.267 703.972 518.64 694.638 518.605C684.23 518.566 673.656 518.925 663.266 518.424C654.692 516.708 637.58 518.179 627.969 518.431C613.297 518.817 598.449 518.112 583.753 518.158C572.985 518.192 561.585 519.254 550.905 518.175C547.129 517.794 544.236 516.963 540.817 515.378C540.05 514.868 540.34 515.023 539.616 514.664C537.04 513.385 534.988 511.889 533.193 509.604C532.397 508.59 531.938 508.721 530.724 508.397C529.802 505.302 526.577 503.155 525.623 500.003C524.593 496.602 523.725 492.288 522.038 489.214C521.427 482.204 523.921 473.102 528.256 467.532C530.037 465.244 532.095 463.505 533.58 460.957C533.671 460.801 533.757 460.643 533.845 460.486C536.959 457.788 540.52 455.558 543.933 453.257Z"/>
	<path fill="#0DA5B2" d="M533.845 460.486C534.656 467.564 522.56 477.125 526.901 484.008C527.17 484.073 527.441 484.134 527.709 484.202C528.833 484.487 528.394 484.336 529.402 484.822C529.382 486.737 529.166 488.082 530.31 489.701C531.59 489.973 532.349 489.4 533.405 488.699C534.449 488.006 535.443 487.186 536.428 486.413C543.922 488.511 549.921 486.971 557.44 487.177C561.831 487.298 566.206 487.819 570.602 487.925C587.854 488.337 605.3 488.185 622.559 487.942C629.586 487.843 636.581 487.027 643.612 486.984C649.346 486.949 655.056 487.662 660.773 487.628C668.94 487.579 677.049 486.908 685.246 487.012C690.906 487.084 696.604 487.781 702.25 487.631C708.631 487.461 717.868 487.582 724.002 486.736C726.496 486.393 729.762 484.259 732.026 484.243C733.047 484.235 734.464 484.721 735.495 484.931C736.992 482.427 734.951 477.741 737.842 476.116C739.066 477.004 740.013 480.329 740.65 480.608C740.714 480.636 742.434 480.779 742.531 480.81C745.665 481.814 745.361 486.954 748.313 488.041C749.639 487.774 749.822 487.809 750.736 486.84L750.794 485.072L751.266 484.638C752.373 487.672 751.5 490.782 752.647 493.809C749.262 503.162 744.542 510.566 735.282 514.948C731.462 516.755 727.343 517.689 723.163 518.179C713.886 519.267 703.972 518.64 694.638 518.605C684.23 518.566 673.656 518.925 663.266 518.424C654.692 516.708 637.58 518.179 627.969 518.431C613.297 518.817 598.449 518.112 583.753 518.158C572.985 518.192 561.585 519.254 550.905 518.175C547.129 517.794 544.236 516.963 540.817 515.378C540.05 514.868 540.34 515.023 539.616 514.664C537.04 513.385 534.988 511.889 533.193 509.604C532.397 508.59 531.938 508.721 530.724 508.397C529.802 505.302 526.577 503.155 525.623 500.003C524.593 496.602 523.725 492.288 522.038 489.214C521.427 482.204 523.921 473.102 528.256 467.532C530.037 465.244 532.095 463.505 533.58 460.957C533.671 460.801 533.757 460.643 533.845 460.486Z"/>
	<path fill="#19C8CD" d="M502.988 275.312C509.325 273.531 525.277 274.525 532.731 274.516L588.25 274.464L673.309 274.504C689.167 274.511 705.365 273.854 721.181 274.853C726.377 275.181 731.781 275.924 736.371 278.55C743.931 282.876 750.289 290.468 752.412 298.971C753.678 304.039 753.959 309.609 752.486 314.65C750.232 322.795 745.048 330.946 737.46 335.079C733.384 337.299 728.404 338.568 723.818 339.141C715.373 340.196 706.24 339.545 697.724 339.542C687.906 339.539 678.058 339.812 668.248 339.675C656.98 339.519 645.699 338.928 634.432 339.02C626.512 338.559 605.829 338.2 598.482 339.439C592.539 339.139 586.455 339.462 580.486 339.388Q557.167 339.082 533.845 339.097C524.373 339.133 513.848 340.116 504.543 338.638C501.938 337.741 499.345 336.922 496.961 335.512C489.37 330.856 484.651 321.637 481.471 313.636C481.087 308.963 481.178 305.107 482.475 300.582C482.419 300.382 482.334 300.189 482.307 299.983C481.995 297.574 485.153 289.888 486.556 287.871C488.014 286.939 489.699 286.475 491.1 285.401C495.293 282.188 498.141 277.758 502.988 275.312Z"/>
	<path fill="#0DA5B2" d="M482.475 300.582C483.475 301.432 483.619 301.917 483.693 303.241C483.717 303.671 483.679 304.102 483.673 304.533C483.658 305.581 483.666 306.368 484.459 307.176C486.186 308.935 489.325 309.343 491.666 309.563L492.179 309.278C493.054 308.804 494.102 308.145 495.107 308.034C498.479 307.659 502.834 308.742 506.316 308.86C515.624 309.177 525.005 308.973 534.322 308.978L686.125 308.972L729.48 308.974C736.78 308.963 744.806 308.296 752.028 309.223C752.665 310.845 752.47 312.911 752.486 314.65C750.232 322.795 745.048 330.946 737.46 335.079C733.384 337.299 728.404 338.568 723.818 339.141C715.373 340.196 706.24 339.545 697.724 339.542C687.906 339.539 678.058 339.812 668.248 339.675C656.98 339.519 645.699 338.928 634.432 339.02C626.512 338.559 605.829 338.2 598.482 339.439C592.539 339.139 586.455 339.462 580.486 339.388Q557.167 339.082 533.845 339.097C524.373 339.133 513.848 340.116 504.543 338.638C501.938 337.741 499.345 336.922 496.961 335.512C489.37 330.856 484.651 321.637 481.471 313.636C481.087 308.963 481.178 305.107 482.475 300.582Z"/>
</svg>
